<svg id="Vallest_Logo" data-name="Vallest Logo" xmlns="http://www.w3.org/2000/svg" width="933.69441mm" height="228.37831mm" viewBox="0 0 2646.69281 647.37158">
  <defs>
    <style>
      .cls-1 {
        fill: none;
      }
    </style>
  </defs>
  <g>
    <path class="cls-1" d="M5395.22754,2246.169c-57.5,0-102.5,33.75-121.25,90h211.25C5483.97754,2284.919,5452.72754,2246.169,5395.22754,2246.169Z" transform="translate(-3842.37848 -1962.54736)"/>
    <polygon class="cls-1" points="267.633 411.122 275.133 411.122 370.133 248.622 521.371 5.471 136.991 5.471 221.383 248.622 267.633 411.122"/>
    <path class="cls-1" d="M4536.76562,2403.669c-65,0-102.5,27.5-102.5,67.5,0,31.25,26.25,55,85,55,67.5,0,116.25-38.75,116.25-68.75C4635.51562,2426.169,4598.01562,2403.669,4536.76562,2403.669Z" transform="translate(-3842.37848 -1962.54736)"/>
    <path class="cls-1" d="M6416.07031,2016.12305h-15.35156v20.9917h14.72559c8.1455,0,13.78515-3.13282,13.78515-10.33887S6423.90332,2016.12305,6416.07031,2016.12305Z" transform="translate(-3842.37848 -1962.54736)"/>
    <path class="cls-1" d="M6413.87793,1980.09277c-32.585,0-55.76953,21.30469-55.76953,55.76905,0,32.2705,23.18457,55.76855,55.76953,55.76855,33.21,0,56.39551-23.18457,56.39551-55.76855C6470.27344,2003.59082,6447.08789,1980.09277,6413.87793,1980.09277Zm31.33008,86.15967h-15.03809l-11.90625-16.292h-17.54492v16.292h-14.41211v-63.28808h29.76367c16.60547,0,28.51172,8.77246,28.51172,23.498,0,9.39942-4.70019,15.97852-11.90625,19.73828l12.53223,16.919Z" transform="translate(-3842.37848 -1962.54736)"/>
    <path d="M4578.01562,2154.919c-117.5,0-188.75,41.25-188.75,41.25l26.25,90s55-32.5,126.25-32.5c87.5,0,120,32.5,112.5,96.25l-2.5,20h-7.5c-11.25-10-45-32.5-121.25-32.5-135,0-208.75,62.5-208.75,148.75,0,68.75,55,121.25,161.25,121.25,101.25,0,146.25-38.75,161.25-57.5h6.25l6.25,47.5h87.5l33.75-237.5C4786.76562,2238.669,4735.51562,2154.919,4578.01562,2154.919Zm-58.75,371.25c-58.75,0-85-23.75-85-55,0-40,37.5-67.5,102.5-67.5,61.25,0,98.75,22.5,98.75,53.75C4635.51562,2487.419,4586.76562,2526.169,4519.26562,2526.169Z" transform="translate(-3842.37848 -1962.54736)"/>
    <polygon points="942.632 634.872 1065.132 634.872 1153.701 5.471 1031.201 5.471 942.632 634.872"/>
    <polygon points="1223.434 5.471 1134.866 634.872 1257.366 634.872 1345.934 5.471 1223.434 5.471"/>
    <path d="M5411.47754,2154.919c-151.25,0-267.5,111.25-267.5,256.25,0,112.5,81.25,198.75,220,198.75,111.25,0,172.5-50,172.5-50l-28.75-78.75s-48.75,32.5-125,32.5c-68.75,0-117.5-35-118.75-108.75h327.5s2.5-17.5,5-30a249.2529,249.2529,0,0,0,3.74792-56.16718,99.15166,99.15166,0,0,1-1.4906-16.43829C5587.08276,2213.78046,5519.16681,2154.919,5411.47754,2154.919Zm-137.5,181.25c18.75-56.25,63.75-90,121.25-90s88.75,38.75,90,90Z" transform="translate(-3842.37848 -1962.54736)"/>
    <path d="M5808.71875,2154.919c-146.25,0-210,66.25-210,146.25,0,.38525.01215.762.01611,1.14453a99.15166,99.15166,0,0,0,1.4906,16.43829c20.26813,113.36017,238.49329,86.74371,238.49329,149.91718,0,30-33.75,48.75-88.75,48.75-81.25,0-145-42.5-145-42.5l-48.75,83.75s56.25,48.75,191.25,48.75c153.75,0,222.5-68.75,222.5-148.75,0-137.5-243.75-103.75-243.75-168.75,0-31.25,31.25-43.75,83.75-43.75,90,0,138.75,32.5,138.75,32.5l46.875-86.34864.19751-1.40063C5990.2417,2187.73889,5930.04077,2154.919,5808.71875,2154.919Z" transform="translate(-3842.37848 -1962.54736)"/>
    <path d="M6221.958,2034.919h-122.5l-18.75,130h-81.25l-3.66675,26.00073-.19751,1.40063L5985.708,2262.419h81.25l-22.5,160c-16.25,118.75,40,185,151.25,185,76.25,0,120-36.25,120-36.25l-27.5-83.75s-26.25,16.25-58.75,16.25c-48.75,0-70-26.25-61.25-86.25l21.25-155h151.25l13.75-97.5h-151.25Z" transform="translate(-3842.37848 -1962.54736)"/>
    <path d="M6413.87793,1962.54736c-46.37012,0-74.25488,33.52393-74.25488,73.31446,0,39.79,27.88476,73.62744,74.25488,73.62744,46.68262,0,75.19336-33.52393,75.19336-73.62744C6489.07129,1996.07129,6460.56055,1962.54736,6413.87793,1962.54736Zm0,129.083c-32.585,0-55.76953-23.498-55.76953-55.76855,0-34.46436,23.18457-55.76905,55.76953-55.76905,33.21,0,56.39551,23.498,56.39551,55.76905C6470.27344,2068.4458,6447.08789,2091.63037,6413.87793,2091.63037Z" transform="translate(-3842.37848 -1962.54736)"/>
    <path d="M6444.582,2026.4624c0-14.72558-11.90625-23.498-28.51172-23.498h-29.76367v63.28808h14.41211v-16.292h17.54492l11.90625,16.292H6445.208v-3.13281l-12.53223-16.919C6439.88184,2042.44092,6444.582,2035.86182,6444.582,2026.4624Zm-29.13769,10.65235h-14.72559v-20.9917h15.35156c7.833,0,13.15918,3.44677,13.15918,10.65283S6423.58984,2037.11475,6415.44434,2037.11475Z" transform="translate(-3842.37848 -1962.54736)"/>
    <polygon points="370.133 248.622 275.133 411.122 267.633 411.122 221.383 248.622 136.991 5.471 0 5.471 227.633 634.872 252.633 634.872 657.548 5.471 521.371 5.471 370.133 248.622"/>
  </g>
</svg>
