<svg id="Eclog_Logo" data-name="Eclog Logo" xmlns="http://www.w3.org/2000/svg" width="1174.21961mm" height="286.2082mm" viewBox="0 0 3328.49653 811.29883">
  <path d="M3729.97179,2533.45529v189.34359h456.80976v140.35346H3569.75768V2068.70117h617.02387v140.353H3729.97179v193.31651H4106.012v131.08464Z" transform="translate(-3569.75768 -2068.70117)"/>
  <path d="M4556.87258,2880c-226.23931,0-368.216-161.5992-368.216-361.29s141.97672-361.29,368.216-361.29c168.52519,0,244.708,85.41678,244.708,85.41678l-79.64541,107.34807s-71.56567-58.86831-162.75382-58.86831c-132.74235,0-226.23931,95.80577-226.23931,227.3935,0,131.5886,93.497,228.54812,226.23931,228.54812,105.03926,0,162.75382-60.02293,162.75382-60.02293l79.64541,107.34807S4724.24358,2880,4556.87258,2880Z" transform="translate(-3569.75768 -2068.70117)"/>
  <path d="M4860.29237,2172.42565h139.66791v570.21481H5369.3305V2864.9947H4860.29237Z" transform="translate(-3569.75768 -2068.70117)"/>
  <path d="M5348.48963,2518.71c0-199.69084,139.66834-361.29,365.90766-361.29,227.39349,0,367.0614,161.5992,367.0614,361.29S5941.79078,2880,5714.39729,2880C5488.158,2880,5348.48963,2718.4008,5348.48963,2518.71Zm589.83816,0c0-131.58773-93.49652-227.3935-223.9305-227.3935-129.2798,0-221.62213,95.80577-221.62213,227.3935,0,131.5886,92.34233,227.39393,221.62213,227.39393C5844.83127,2746.10389,5938.32779,2650.29856,5938.32779,2518.71Z" transform="translate(-3569.75768 -2068.70117)"/>
  <path d="M6898.25421,2412.14258v76.46387c0,230.68945-127.00879,391.39355-369.36182,391.39355-255.313,0-410.834-181.44043-410.834-405.64941s156.81689-405.64942,413.42578-405.64942c203.47314,0,290.30517,98.4961,290.30517,98.4961l-92.01611,119.23291s-77.76025-67.39258-200.88086-67.39258c-147.74463,0-248.833,107.56885-248.833,255.313,0,147.74511,99.79248,256.60937,247.53711,256.60937,125.71241,0,200.88037-79.05664,204.76856-180.14453v-10.36816h-222.9126V2412.14258Z" transform="translate(-3569.75768 -2068.70117)"/>
</svg>
